<svg width="15" height="15" viewBox="0 0 15 15" fill="none" xmlns="http://www.w3.org/2000/svg">
<path fill-rule="evenodd" clip-rule="evenodd" d="M1.13353 8.55298H11.5589L7.0042 13.1076C6.6402 13.4716 6.6402 14.069 7.0042 14.433C7.3682 14.797 7.9562 14.797 8.3202 14.433L14.4709 8.28231C14.8349 7.91831 14.8349 7.33031 14.4709 6.96631L8.32953 0.806312C8.15515 0.631543 7.91841 0.533325 7.67153 0.533325C7.42465 0.533325 7.1879 0.631543 7.01353 0.806312C6.64953 1.17031 6.64953 1.75831 7.01353 2.12231L11.5589 6.68631H1.13353C0.620195 6.68631 0.200195 7.10631 0.200195 7.61964C0.200195 8.13298 0.620195 8.55298 1.13353 8.55298Z" fill="#C3CAD9"/>
</svg>
