<svg width="20" height="20" viewBox="0 0 20 20" fill="none" xmlns="http://www.w3.org/2000/svg">
<path fill-rule="evenodd" clip-rule="evenodd" d="M9.9971 0C4.48427 0 0 4.48427 0 9.9971C0 12.1834 0.705276 14.211 1.90418 15.8568L0.658169 19.5711L4.50185 18.343C6.08275 19.3891 7.96935 19.9944 10.0029 19.9944C15.5157 19.9944 20 15.5099 20 9.99726C20 4.48444 15.5157 0.000165869 10.0029 0.000165869H9.9971V0ZM7.20535 5.07808C7.01145 4.61381 6.86449 4.59623 6.57074 4.58429C6.45919 4.57711 6.34746 4.57323 6.23568 4.57268C5.85352 4.57268 5.45394 4.68431 5.21293 4.93112C4.91918 5.23085 4.19035 5.93015 4.19035 7.36426C4.19035 8.79836 5.23649 10.1854 5.37748 10.3794C5.52444 10.5732 7.417 13.5588 10.3555 14.7756C12.6535 15.7277 13.3354 15.6395 13.8584 15.5278C14.6224 15.3633 15.5804 14.7988 15.8214 14.1173C16.0624 13.4354 16.0624 12.8535 15.9918 12.7301C15.9213 12.6067 15.7272 12.5364 15.4335 12.3893C15.1397 12.2423 13.7114 11.537 13.441 11.443C13.1765 11.3431 12.9239 11.3785 12.7242 11.6606C12.442 12.0544 12.1658 12.4541 11.9424 12.695C11.7661 12.8831 11.478 12.9066 11.2371 12.8066C10.9139 12.6716 10.0089 12.3539 8.89208 11.3607C8.02807 10.5909 7.44039 9.63301 7.27004 9.34507C7.09953 9.05131 7.25246 8.88063 7.38748 8.72206C7.53444 8.53977 7.67543 8.41056 7.82239 8.24005C7.96935 8.0697 8.05162 7.98146 8.14567 7.78158C8.24569 7.58768 8.17502 7.38781 8.10453 7.24085C8.03404 7.09389 7.44636 5.65979 7.20535 5.07808Z" fill="#C3CAD9"/>
</svg>
