<svg width="35" height="33" viewBox="0 0 35 33" fill="none" xmlns="http://www.w3.org/2000/svg">
<path d="M25.3707 0.618063C24.9659 0.408865 24.4947 0.369022 24.0605 0.507301C23.6264 0.645579 23.265 0.950651 23.0558 1.3554C22.8466 1.76016 22.8067 2.23144 22.945 2.66557C23.0833 3.09969 23.3884 3.46111 23.7931 3.67031C26.5255 5.08098 28.7047 7.36878 29.9808 10.1665C31.257 12.9642 31.5562 16.1095 30.8303 19.0977C30.1045 22.0858 28.3957 24.7434 25.9783 26.6439C23.5609 28.5444 20.575 29.5776 17.5 29.5776C14.425 29.5776 11.4391 28.5444 9.02171 26.6439C6.6043 24.7434 4.89553 22.0858 4.16969 19.0977C3.44384 16.1095 3.74302 12.9642 5.01919 10.1665C6.29537 7.36878 8.47453 5.08098 11.2069 3.67031C11.4073 3.56673 11.5854 3.42468 11.7309 3.25229C11.8764 3.07989 11.9865 2.88052 12.055 2.66557C12.1235 2.45061 12.1489 2.22427 12.1299 1.99947C12.1109 1.77467 12.0478 1.55582 11.9442 1.3554C11.8407 1.15499 11.6986 0.976942 11.5262 0.831424C11.3538 0.685906 11.1544 0.575769 10.9395 0.507301C10.7245 0.438832 10.4982 0.413373 10.2734 0.432378C10.0486 0.451383 9.82974 0.514478 9.62933 0.618063C6.21474 2.38217 3.4918 5.24227 1.89749 8.73936C0.303175 12.2365 -0.0700619 16.1678 0.837673 19.9024C1.74541 23.637 3.88148 26.9585 6.90309 29.3336C9.9247 31.7088 13.6566 33 17.5 33C21.3434 33 25.0753 31.7088 28.0969 29.3336C31.1185 26.9585 33.2546 23.637 34.1624 19.9024C35.0701 16.1678 34.6968 12.2365 33.1025 8.73936C31.5082 5.24227 28.7853 2.38217 25.3707 0.618063Z" fill="#697DA5"/>
</svg>
